<svg width="512" height="512" xmlns="http://www.w3.org/2000/svg" viewBox="0 0 512 512">
  <rect width="512" height="512" fill="#2563eb" rx="64"/>
  
  <!-- Heftruck body -->
  <rect x="96" y="212" width="214" height="160" rx="12" fill="#ffffff"/>
  <rect x="104" y="220" width="198" height="144" rx="6" fill="#f1f5f9"/>
  
  <!-- Cab window -->
  <rect x="128" y="244" width="74" height="54" rx="6" fill="#e2e8f0"/>
  <line x1="165" y1="244" x2="165" y2="298" stroke="#cbd5e1" stroke-width="3"/>
  <line x1="128" y1="271" x2="202" y2="271" stroke="#cbd5e1" stroke-width="3"/>
  
  <!-- Mast -->
  <rect x="180" y="148" width="44" height="64" fill="#ffffff"/>
  <line x1="202" y1="148" x2="202" y2="212" stroke="#cbd5e1" stroke-width="3"/>
  
  <!-- Forks -->
  <rect x="148" y="148" width="16" height="52" rx="2" fill="#ffffff"/>
  <rect x="240" y="148" width="16" height="52" rx="2" fill="#ffffff"/>
  <line x1="156" y1="148" x2="156" y2="200" stroke="#cbd5e1" stroke-width="2"/>
  <line x1="248" y1="148" x2="248" y2="200" stroke="#cbd5e1" stroke-width="2"/>
  
  <!-- Wheels -->
  <circle cx="134" cy="392" r="32" fill="#1e293b"/>
  <circle cx="134" cy="392" r="22" fill="#475569"/>
  <circle cx="272" cy="392" r="32" fill="#1e293b"/>
  <circle cx="272" cy="392" r="22" fill="#475569"/>
  
  <!-- Counterweight -->
  <rect x="310" y="266" width="76" height="106" rx="6" fill="#ffffff"/>
  <rect x="320" y="276" width="56" height="86" rx="3" fill="#e2e8f0"/>
  
  <!-- TVH text -->
  <text x="256" y="460" font-family="Arial, sans-serif" font-size="54" font-weight="bold" fill="white" text-anchor="middle">TVH</text>
</svg>