<svg width="192" height="192" xmlns="http://www.w3.org/2000/svg" viewBox="0 0 192 192">
  <rect width="192" height="192" fill="#2563eb" rx="24"/>
  
  <!-- Heftruck body -->
  <rect x="36" y="80" width="80" height="60" rx="4" fill="#ffffff"/>
  <rect x="40" y="84" width="72" height="52" rx="2" fill="#f1f5f9"/>
  
  <!-- Cab window -->
  <rect x="48" y="92" width="28" height="20" rx="2" fill="#e2e8f0"/>
  <line x1="62" y1="92" x2="62" y2="112" stroke="#cbd5e1" stroke-width="1.5"/>
  <line x1="48" y1="102" x2="76" y2="102" stroke="#cbd5e1" stroke-width="1.5"/>
  
  <!-- Mast -->
  <rect x="68" y="56" width="16" height="24" fill="#ffffff"/>
  <line x1="76" y1="56" x2="76" y2="80" stroke="#cbd5e1" stroke-width="1.5"/>
  
  <!-- Forks -->
  <rect x="56" y="56" width="6" height="20" rx="1" fill="#ffffff"/>
  <rect x="90" y="56" width="6" height="20" rx="1" fill="#ffffff"/>
  <line x1="59" y1="56" x2="59" y2="76" stroke="#cbd5e1" stroke-width="1"/>
  <line x1="93" y1="56" x2="93" y2="76" stroke="#cbd5e1" stroke-width="1"/>
  
  <!-- Wheels -->
  <circle cx="50" cy="148" r="12" fill="#1e293b"/>
  <circle cx="50" cy="148" r="8" fill="#475569"/>
  <circle cx="102" cy="148" r="12" fill="#1e293b"/>
  <circle cx="102" cy="148" r="8" fill="#475569"/>
  
  <!-- Counterweight -->
  <rect x="116" y="100" width="28" height="40" rx="2" fill="#ffffff"/>
  <rect x="120" y="104" width="20" height="32" rx="1" fill="#e2e8f0"/>
  
  <!-- TVH text -->
  <text x="96" y="168" font-family="Arial, sans-serif" font-size="20" font-weight="bold" fill="white" text-anchor="middle">TVH</text>
</svg>